<svg width="400" height="400" viewBox="0 0 400 400" fill="none" xmlns="http://www.w3.org/2000/svg">
<rect width="400" height="100" transform="matrix(-1 0 0 1 400 300)" fill="#D8EAD0"/>
<rect y="240" width="20" height="20" fill="#D8EAD0"/>
<rect y="260" width="20" height="20" fill="#D8EAD0"/>
<rect y="280" width="20" height="20" fill="#D8EAD0"/>
<rect y="160" width="20" height="20" fill="#D8EAD0"/>
<rect y="200" width="20" height="20" fill="#D8EAD0"/>
<rect x="20" y="240" width="20" height="20" fill="#D8EAD0"/>
<rect x="20" y="260" width="20" height="20" fill="#D8EAD0"/>
<rect y="120" width="20" height="20" fill="#D8EAD0"/>
<rect x="20" y="280" width="20" height="20" fill="#D8EAD0"/>
<rect x="20" y="160" width="20" height="20" fill="#D8EAD0"/>
<rect x="40" y="260" width="20" height="20" fill="#D8EAD0"/>
<rect x="40" y="240" width="20" height="20" fill="#D8EAD0"/>
<rect x="20" y="200" width="20" height="20" fill="#D8EAD0"/>
<rect x="40" y="280" width="20" height="20" fill="#D8EAD0"/>
<rect x="40" y="160" width="20" height="20" fill="#D8EAD0"/>
<rect x="40" y="120" width="20" height="20" fill="#D8EAD0"/>
<rect x="40" y="220" width="20" height="20" fill="#D8EAD0"/>
<rect x="40" y="140" width="20" height="20" fill="#D8EAD0"/>
<rect x="40" y="180" width="20" height="20" fill="#D8EAD0"/>
<rect x="40" y="100" width="20" height="20" fill="#D8EAD0"/>
<rect x="60" y="60" width="20" height="20" fill="#D8EAD0"/>
<rect x="60" y="220" width="20" height="20" fill="#D8EAD0"/>
<rect x="60" y="240" width="20" height="20" fill="#D8EAD0"/>
<rect x="60" y="260" width="20" height="20" fill="#D8EAD0"/>
<rect x="60" y="140" width="20" height="20" fill="#D8EAD0"/>
<rect x="60" y="180" width="20" height="20" fill="#D8EAD0"/>
<rect x="60" y="100" width="20" height="20" fill="#D8EAD0"/>
<rect x="60" y="280" width="20" height="20" fill="#D8EAD0"/>
<rect x="60" y="160" width="20" height="20" fill="#D8EAD0"/>
<rect x="40" y="200" width="20" height="20" fill="#D8EAD0"/>
<rect x="80" y="80" width="20" height="20" fill="#D8EAD0"/>
<rect x="20" y="220" width="20" height="20" fill="#D8EAD0"/>
<rect x="20" y="140" width="20" height="20" fill="#D8EAD0"/>
<rect x="20" y="180" width="20" height="20" fill="#D8EAD0"/>
<rect x="20" y="100" width="20" height="20" fill="#D8EAD0"/>
<rect x="80" y="240" width="20" height="20" fill="#D8EAD0"/>
<rect y="220" width="20" height="20" fill="#D8EAD0"/>
<rect x="80" y="260" width="20" height="20" fill="#D8EAD0"/>
<rect y="140" width="20" height="20" fill="#D8EAD0"/>
<rect y="180" width="20" height="20" fill="#D8EAD0"/>
<rect x="100" y="240" width="20" height="20" fill="#D8EAD0"/>
<rect y="100" width="20" height="20" fill="#D8EAD0"/>
<rect x="100" y="260" width="20" height="20" fill="#D8EAD0"/>
<rect x="80" y="280" width="20" height="20" fill="#D8EAD0"/>
<rect x="80" y="160" width="20" height="20" fill="#D8EAD0"/>
<rect x="80" y="200" width="20" height="20" fill="#D8EAD0"/>
<rect x="120" y="240" width="20" height="20" fill="#D8EAD0"/>
<rect x="80" y="120" width="20" height="20" fill="#D8EAD0"/>
<rect x="120" y="260" width="20" height="20" fill="#D8EAD0"/>
<rect x="100" y="280" width="20" height="20" fill="#D8EAD0"/>
<rect x="200" y="240" width="20" height="20" fill="#D8EAD0"/>
<rect x="100" y="160" width="20" height="20" fill="#D8EAD0"/>
<rect x="20" y="60" width="20" height="20" fill="#D8EAD0"/>
<rect x="20" y="20" width="20" height="20" fill="#D8EAD0"/>
<rect x="120" y="280" width="20" height="20" fill="#D8EAD0"/>
<rect x="140" y="180" width="20" height="20" fill="#D8EAD0"/>
<rect x="120" y="200" width="20" height="20" fill="#D8EAD0"/>
<rect x="200" y="200" width="20" height="20" fill="#D8EAD0"/>
<rect x="220" y="180" width="20" height="20" fill="#D8EAD0"/>
<rect x="240" y="160" width="20" height="20" fill="#D8EAD0"/>
<rect x="280" y="240" width="20" height="20" fill="#D8EAD0"/>
<rect x="200" y="160" width="20" height="20" fill="#D8EAD0"/>
<rect x="220" y="240" width="20" height="20" fill="#D8EAD0"/>
<rect x="240" y="240" width="20" height="20" fill="#D8EAD0"/>
<rect x="300" y="260" width="20" height="20" fill="#D8EAD0"/>
<rect x="180" y="180" width="20" height="20" fill="#D8EAD0"/>
<rect x="220" y="260" width="20" height="20" fill="#D8EAD0"/>
<rect x="160" y="160" width="20" height="20" fill="#D8EAD0"/>
<rect x="140" y="140" width="20" height="20" fill="#D8EAD0"/>
<rect x="120" y="120" width="20" height="20" fill="#D8EAD0"/>
<rect x="220" y="220" width="20" height="20" fill="#D8EAD0"/>
<rect x="240" y="200" width="20" height="20" fill="#D8EAD0"/>
<rect x="260" y="220" width="20" height="20" fill="#D8EAD0"/>
<rect x="300" y="280" width="20" height="20" fill="#D8EAD0"/>
<rect x="180" y="260" width="20" height="20" fill="#D8EAD0"/>
<rect x="280" y="200" width="20" height="20" fill="#D8EAD0"/>
<rect x="160" y="240" width="20" height="20" fill="#D8EAD0"/>
<rect x="140" y="260" width="20" height="20" fill="#D8EAD0"/>
<rect x="180" y="220" width="20" height="20" fill="#D8EAD0"/>
<rect x="20" y="80" width="20" height="20" fill="#D8EAD0"/>
<rect x="120" y="160" width="20" height="20" fill="#D8EAD0"/>
<rect x="40" y="40" width="20" height="20" fill="#D8EAD0"/>
<rect x="140" y="220" width="20" height="20" fill="#D8EAD0"/>
<rect x="180" y="280" width="20" height="20" fill="#D8EAD0"/>
<rect x="160" y="200" width="20" height="20" fill="#D8EAD0"/>
<rect x="140" y="200" width="20" height="20" fill="#D8EAD0"/>
<rect y="80" width="20" height="20" fill="#D8EAD0"/>
<rect x="140" y="280" width="20" height="20" fill="#D8EAD0"/>
<rect x="100" y="220" width="20" height="20" fill="#D8EAD0"/>
<rect x="100" y="140" width="20" height="20" fill="#D8EAD0"/>
<rect x="100" y="180" width="20" height="20" fill="#D8EAD0"/>
<rect x="40" y="80" width="20" height="20" fill="#D8EAD0"/>
<rect x="100" y="100" width="20" height="20" fill="#D8EAD0"/>
<rect width="20" height="20" transform="matrix(-1 0 0 1 380 240)" fill="#D8EAD0"/>
<rect x="80" y="180" width="20" height="20" fill="#D8EAD0"/>
<rect y="60" width="20" height="20" fill="#D8EAD0"/>
<rect y="40" width="20" height="20" fill="#D8EAD0"/>
<rect width="20" height="20" transform="matrix(-1 0 0 1 380 260)" fill="#D8EAD0"/>
<rect x="60" y="20" width="20" height="20" fill="#D8EAD0"/>
<rect x="80" y="40" width="20" height="20" fill="#D8EAD0"/>
<rect x="60" y="80" width="20" height="20" fill="#D8EAD0"/>
<rect x="160" y="80" width="20" height="20" fill="#D8EAD0"/>
<rect x="120" y="80" width="20" height="20" fill="#D8EAD0"/>
<rect x="100" y="120" width="20" height="20" fill="#D8EAD0"/>
<rect x="140" y="100" width="20" height="20" fill="#D8EAD0"/>
<rect x="160" y="120" width="20" height="20" fill="#D8EAD0"/>
<rect x="180" y="140" width="20" height="20" fill="#D8EAD0"/>
<rect x="200" y="120" width="20" height="20" fill="#D8EAD0"/>
<rect x="220" y="100" width="20" height="20" fill="#D8EAD0"/>
<rect width="20" height="20" transform="matrix(-1 0 0 1 380 280)" fill="#D8EAD0"/>
<rect width="20" height="20" transform="matrix(-1 0 0 1 360 280)" fill="#D8EAD0"/>
<rect width="20" height="20" transform="matrix(-1 0 0 1 300 280)" fill="#D8EAD0"/>
<rect width="20" height="20" transform="matrix(-1 0 0 1 260 280)" fill="#D8EAD0"/>
<rect width="20" height="20" transform="matrix(-1 0 0 1 220 280)" fill="#D8EAD0"/>
<rect width="20" height="20" transform="matrix(-1 0 0 1 180 280)" fill="#D8EAD0"/>
<rect width="20" height="20" transform="matrix(-1 0 0 1 380 200)" fill="#D8EAD0"/>
<rect width="20" height="20" transform="matrix(-1 0 0 1 360 180)" fill="#D8EAD0"/>
<rect width="20" height="20" transform="matrix(-1 0 0 1 380 160)" fill="#D8EAD0"/>
<rect width="20" height="20" transform="matrix(-1 0 0 1 360 240)" fill="#D8EAD0"/>
<rect width="20" height="20" transform="matrix(-1 0 0 1 340 240)" fill="#D8EAD0"/>
<rect width="20" height="20" transform="matrix(-1 0 0 1 400 180)" fill="#D8EAD0"/>
<rect width="20" height="20" transform="matrix(-1 0 0 1 400 240)" fill="#D8EAD0"/>
<rect width="20" height="20" transform="matrix(-1 0 0 1 360 220)" fill="#D8EAD0"/>
<rect width="20" height="20" transform="matrix(-1 0 0 1 280 260)" fill="#D8EAD0"/>
<rect width="20" height="20" transform="matrix(-1 0 0 1 340 260)" fill="#D8EAD0"/>
<rect width="20" height="20" transform="matrix(-1 0 0 1 340 200)" fill="#D8EAD0"/>
<rect width="20" height="20" transform="matrix(-1 0 0 1 400 260)" fill="#D8EAD0"/>
<rect width="20" height="20" transform="matrix(-1 0 0 1 320 180)" fill="#D8EAD0"/>
<rect width="20" height="20" transform="matrix(-1 0 0 1 300 160)" fill="#D8EAD0"/>
<rect width="20" height="20" transform="matrix(-1 0 0 1 340 160)" fill="#D8EAD0"/>
<rect width="20" height="20" transform="matrix(-1 0 0 1 360 140)" fill="#D8EAD0"/>
<rect width="20" height="20" transform="matrix(-1 0 0 1 380 120)" fill="#D8EAD0"/>
<rect width="20" height="20" transform="matrix(-1 0 0 1 340 80)" fill="#D8EAD0"/>
<rect width="20" height="20" transform="matrix(-1 0 0 1 360 100)" fill="#D8EAD0"/>
<rect width="20" height="20" transform="matrix(-1 0 0 1 400 100)" fill="#D8EAD0"/>
<rect width="20" height="20" transform="matrix(-1 0 0 1 340 120)" fill="#D8EAD0"/>
<rect width="20" height="20" transform="matrix(-1 0 0 1 300 120)" fill="#D8EAD0"/>
<rect width="20" height="20" transform="matrix(-1 0 0 1 320 220)" fill="#D8EAD0"/>
<rect width="20" height="20" transform="matrix(-1 0 0 1 340 280)" fill="#D8EAD0"/>
<rect width="20" height="20" transform="matrix(-1 0 0 1 400 220)" fill="#D8EAD0"/>
<rect width="20" height="20" transform="matrix(-1 0 0 1 400 280)" fill="#D8EAD0"/>
<rect width="20" height="20" transform="matrix(-1 0 0 1 400 140)" fill="#D8EAD0"/>
<rect x="140" y="160" width="20" height="20" fill="#D8EAD0"/>
<rect width="20" height="20" fill="#D8EAD0"/>
</svg>
